<?xml version="1.0" encoding="UTF-8"?>
<!DOCTYPE svg  PUBLIC '-//W3C//DTD SVG 1.1//EN'  'http://www.w3.org/Graphics/SVG/1.1/DTD/svg11.dtd'>
<svg clip-rule="evenodd" fill-rule="evenodd" stroke-linejoin="round" stroke-miterlimit="2" version="1.1" viewBox="0 0 179 146" xml:space="preserve" xmlns="http://www.w3.org/2000/svg">
    <g transform="translate(-146.38 -652.36)">
        <g transform="translate(-880.22 275.01)">
            
                <path d="m1116.2 377.34c5.02 0 9.08 4.058 9.08 9.082v18.165h36.33c10.02 0 18.17 8.145 18.17 18.164v81.741c0 10.019-8.15 18.164-18.17 18.164h-90.82c-10.02 0-18.17-8.145-18.17-18.164v-81.741c0-10.019 8.15-18.164 18.17-18.164h36.33v-18.165c0-5.024 4.06-9.082 9.08-9.082zm-28.62 56.024c-6.08 0-11.02 4.936-11.02 11.017s4.94 11.017 11.02 11.017 11.01-4.936 11.01-11.017-4.93-11.017-11.01-11.017zm-7.87 59.191c3.86 2.224 12.4 3.557 16.26 3.779h2.21c4.96 0 12.95-0.889 17.91-4.224 4.97 3.334 12.96 4.224 17.92 4.224h2.21c3.86-0.222 12.4-1.557 16.26-3.779 1.38-0.888 2.21-2.223 1.65-3.778-0.55-1.333-1.93-2.445-3.85-2.445-6.35-0.222-9.93-2-15.99-5.556-2.48-1.557-6.9-4-12.96-2.667-1.65 0.445-3.58 1.333-4.96 2.445-1.66-1.112-3.31-2-4.96-2.445-6.07-1.333-10.2 1.111-12.96 2.667-6.06 3.556-9.65 5.556-15.99 5.556-1.65 0-3.3 1.112-3.86 2.445-1.1 1.555-0.27 3.112 1.11 3.778zm65.17-59.191c-6.08 0-11.02 4.936-11.02 11.017s4.94 11.017 11.02 11.017 11.02-4.936 11.02-11.017-4.94-11.017-11.02-11.017z" fill="#2b2d42" fill-rule="nonzero"/>
                <g transform="matrix(2.1114 0 0 1.6694 -200.91 -142.14)">
                    <clipPath id="b">
                        <rect x="576.41" y="342.14" width="14.248" height="41.2"/>
                    </clipPath>
                    <g clip-path="url(#b)">
                        <path d="m600.6 353.31c0-5.5-3.53-9.965-7.878-9.965h-3.459c-4.348 0-7.879 4.465-7.879 9.965v17.899c0 5.499 3.531 9.964 7.879 9.964h3.459c4.348 0 7.878-4.465 7.878-9.964v-17.899z" fill="#2b2d42"/>
                    </g>
                </g>
                <g transform="matrix(-2.1114 0 0 1.6694 2433.1 -142.14)">
                    <clipPath id="a">
                        <rect x="576.41" y="342.14" width="14.248" height="41.2"/>
                    </clipPath>
                    <g clip-path="url(#a)">
                        <path d="m600.6 353.31c0-5.5-3.53-9.965-7.878-9.965h-3.459c-4.348 0-7.879 4.465-7.879 9.965v17.899c0 5.499 3.531 9.964 7.879 9.964h3.459c4.348 0 7.878-4.465 7.878-9.964v-17.899z" fill="#2b2d42"/>
                    </g>
                </g>
            
        </g>
    </g>
</svg>
