<?xml version="1.0" encoding="UTF-8"?>
<!DOCTYPE svg  PUBLIC '-//W3C//DTD SVG 1.1//EN'  'http://www.w3.org/Graphics/SVG/1.1/DTD/svg11.dtd'>
<svg clip-rule="evenodd" fill-rule="evenodd" stroke-linejoin="round" stroke-miterlimit="2" version="1.1" viewBox="0 0 179 143" xml:space="preserve" xmlns="http://www.w3.org/2000/svg">
    <g transform="translate(-720 -596.5)">
        <g transform="matrix(.2784 0 0 .2784 809.09 667.77)">
            <g transform="translate(-320 -256)">
                <path d="m320 0c17.7 0 32 14.3 32 32v64h128c35.3 0 64 28.7 64 64v288c0 35.3-28.7 64-64 64h-320c-35.3 0-64-28.7-64-64v-288c0-35.3 28.7-64 64-64h128v-64c0-17.7 14.3-32 32-32zm-112 384c-8.8 0-16 7.2-16 16s7.2 16 16 16h32c8.8 0 16-7.2 16-16s-7.2-16-16-16h-32zm96 0c-8.8 0-16 7.2-16 16s7.2 16 16 16h32c8.8 0 16-7.2 16-16s-7.2-16-16-16h-32zm96 0c-8.8 0-16 7.2-16 16s7.2 16 16 16h32c8.8 0 16-7.2 16-16s-7.2-16-16-16h-32zm-136-128c0-22.1-17.9-40-40-40s-40 17.9-40 40 17.9 40 40 40 40-17.9 40-40zm152 40c22.1 0 40-17.9 40-40s-17.9-40-40-40-40 17.9-40 40 17.9 40 40 40zm-368-72h16v192h-16c-26.5 0-48-21.5-48-48v-96c0-26.5 21.5-48 48-48zm544 0c26.5 0 48 21.5 48 48v96c0 26.5-21.5 48-48 48h-16v-192h16z" fill="#2b2d42" fill-rule="nonzero"/>
            </g>
        </g>
    </g>
</svg>
