<?xml version="1.0" encoding="UTF-8"?>
<!DOCTYPE svg  PUBLIC '-//W3C//DTD SVG 1.1//EN'  'http://www.w3.org/Graphics/SVG/1.1/DTD/svg11.dtd'>
<svg clip-rule="evenodd" fill-rule="evenodd" stroke-linejoin="round" stroke-miterlimit="2" version="1.1" viewBox="0 0 150 150" xml:space="preserve" xmlns="http://www.w3.org/2000/svg">
    <g transform="translate(-672 -397.28)">
        
            <g transform="matrix(1.0862 0 0 1.0862 449.78 215.33)">
                <rect x="204.59" y="167.51" width="138.1" height="138.1" fill="none"/>
            </g>
            <g transform="matrix(.27655 0 0 .27655 746.69 472.69)">
                <g transform="translate(-256 -256)">
                    <path d="m48 64c-26.5 0-48 21.5-48 48 0 15.1 7.1 29.3 19.2 38.4l217.6 163.2c11.4 8.5 27 8.5 38.4 0l217.6-163.2c12.1-9.1 19.2-23.3 19.2-38.4 0-26.5-21.5-48-48-48h-416zm-48 112v208c0 35.3 28.7 64 64 64h384c35.3 0 64-28.7 64-64v-208l-217.6 163.2c-22.8 17.1-54 17.1-76.8 0l-217.6-163.2z" fill="#2b2d42" fill-rule="nonzero"/>
                </g>
            </g>
        
    </g>
</svg>
