<?xml version="1.0" encoding="UTF-8"?>
<!DOCTYPE svg  PUBLIC '-//W3C//DTD SVG 1.1//EN'  'http://www.w3.org/Graphics/SVG/1.1/DTD/svg11.dtd'>
<svg clip-rule="evenodd" fill-rule="evenodd" stroke-linejoin="round" stroke-miterlimit="2" version="1.1" viewBox="0 0 150 150" xml:space="preserve" xmlns="http://www.w3.org/2000/svg">
    <g transform="translate(-437.38 -397.28)">
        
            <g transform="matrix(1.0862 0 0 1.0862 215.16 215.33)">
                <rect x="204.59" y="167.51" width="138.1" height="138.1" fill="none"/>
            </g>
            <g transform="translate(-50.018 -76.352)">
                <path d="m562.48 489.94c4.058 0 7.337 3.279 7.337 7.337v14.674h29.348c8.093 0 14.673 6.58 14.673 14.674v66.031c0 8.094-6.58 14.674-14.673 14.674h-73.369c-8.094 0-14.674-6.58-14.674-14.674v-66.031c0-8.094 6.58-14.674 14.674-14.674h29.347v-14.674c0-4.058 3.279-7.337 7.337-7.337zm23.168 45.258c-4.912 0-8.9 3.988-8.9 8.9s3.988 8.9 8.9 8.9 8.9-3.988 8.9-8.9-3.988-8.9-8.9-8.9zm-39.381 56.435c0-2.686-2.181-4.867-4.867-4.867h-11.322c-2.686 0-4.867 2.181-4.867 4.867 0 2.687 2.181 4.868 4.867 4.868h11.322c2.686 0 4.867-2.181 4.867-4.868zm-13.266-14.358c3.117 1.796 10.02 2.873 13.138 3.052h1.781c4.008 0 10.467-0.717 14.474-3.412 4.008 2.693 10.467 3.412 14.474 3.412h1.782c3.117-0.179 10.02-1.257 13.138-3.052 1.114-0.718 1.782-1.796 1.336-3.052-0.446-1.077-1.56-1.975-3.118-1.975-5.121-0.179-8.016-1.616-12.916-4.489-2.003-1.257-5.567-3.231-10.466-2.154-1.336 0.359-2.895 1.077-4.007 1.975-1.336-0.898-2.672-1.616-4.008-1.975-4.899-1.077-8.239 0.898-10.466 2.154-4.899 2.873-7.795 4.489-12.916 4.489-1.336 0-2.672 0.898-3.118 1.975-0.89 1.256-0.222 2.513 0.892 3.052zm6.355-42.077c-4.912 0-8.9 3.988-8.9 8.9s3.988 8.9 8.9 8.9c4.913 0 8.9-3.988 8.9-8.9s-3.987-8.9-8.9-8.9zm33.783 56.435c0-2.686-2.181-4.867-4.868-4.867h-11.321c-2.687 0-4.868 2.181-4.868 4.867 0 2.687 2.181 4.868 4.868 4.868h11.321c2.687 0 4.868-2.181 4.868-4.868zm26.611 0c0-2.686-2.181-4.867-4.868-4.867h-11.321c-2.687 0-4.868 2.181-4.868 4.867 0 2.687 2.181 4.868 4.868 4.868h11.321c2.687 0 4.868-2.181 4.868-4.868z" fill="#2b2d42" fill-rule="nonzero"/>
                <g transform="matrix(1.7056 0 0 1.3485 -501.51 70.285)">
                    <clipPath id="b">
                        <rect x="576.41" y="342.14" width="14.248" height="41.2"/>
                    </clipPath>
                    <g clip-path="url(#b)">
                        <path d="m600.6 353.31c0-5.5-3.53-9.965-7.878-9.965h-3.459c-4.348 0-7.879 4.465-7.879 9.965v17.899c0 5.499 3.531 9.964 7.879 9.964h3.459c4.348 0 7.878-4.465 7.878-9.964v-17.899z" fill="#2b2d42"/>
                    </g>
                </g>
                <g transform="matrix(-1.7056 0 0 1.3485 1626.3 70.285)">
                    <clipPath id="a">
                        <rect x="576.41" y="342.14" width="14.248" height="41.2"/>
                    </clipPath>
                    <g clip-path="url(#a)">
                        <path d="m600.6 353.31c0-5.5-3.53-9.965-7.878-9.965h-3.459c-4.348 0-7.879 4.465-7.879 9.965v17.899c0 5.499 3.531 9.964 7.879 9.964h3.459c4.348 0 7.878-4.465 7.878-9.964v-17.899z" fill="#2b2d42"/>
                    </g>
                </g>
            </g>
        
    </g>
</svg>
