<?xml version="1.0" encoding="UTF-8"?>
<!DOCTYPE svg  PUBLIC '-//W3C//DTD SVG 1.1//EN'  'http://www.w3.org/Graphics/SVG/1.1/DTD/svg11.dtd'>
<svg clip-rule="evenodd" fill-rule="evenodd" stroke-linejoin="round" stroke-miterlimit="2" version="1.1" viewBox="0 0 150 150" xml:space="preserve" xmlns="http://www.w3.org/2000/svg">
    <g transform="translate(-672 -167.51)">
        
            <g transform="matrix(1.0862 0 0 1.0862 449.78 -14.436)">
                <rect x="204.59" y="167.51" width="138.1" height="138.1" fill="none"/>
            </g>
            <g transform="matrix(.25765 0 0 .25765 747 242.51)">
                <g transform="translate(-224 -256)">
                    <path d="m100.28 448h-92.88v-299.1h92.88v299.1zm-46.49-339.9c-29.7 0-53.79-24.6-53.79-54.3-0-29.508 24.282-53.79 53.79-53.79s53.79 24.282 53.79 53.79c0 29.7-24.1 54.3-53.79 54.3zm394.21 339.9h-92.78v-145.6c0-34.7-0.7-79.2-48.29-79.2-48.29 0-55.69 37.7-55.69 76.7v148.1h-92.78v-299.1h89.08v40.8h1.3c12.4-23.5 42.69-48.3 87.88-48.3 94 0 111.28 61.9 111.28 142.3v164.3z" fill="#2b2d42" fill-rule="nonzero"/>
                </g>
            </g>
        
    </g>
</svg>
