<?xml version="1.0" encoding="UTF-8"?>
<!DOCTYPE svg  PUBLIC '-//W3C//DTD SVG 1.1//EN'  'http://www.w3.org/Graphics/SVG/1.1/DTD/svg11.dtd'>
<svg clip-rule="evenodd" fill-rule="evenodd" stroke-linecap="round" stroke-linejoin="round" stroke-miterlimit="1.5" version="1.1" viewBox="0 0 150 150" xml:space="preserve" xmlns="http://www.w3.org/2000/svg">
    <g transform="translate(-435.15 -167.51)">
        
            <g transform="matrix(1.0862 0 0 1.0862 212.92 -14.436)">
                <rect x="204.59" y="167.51" width="138.1" height="138.1" fill="none"/>
            </g>
            <g transform="matrix(.88554 0 0 .88554 291.48 104.96)">
                <g transform="matrix(2.9843e-16 4.8737 -4.8737 2.9843e-16 495.15 -510.16)">
                    <path d="m132.71 45.429c0.626-1.248 1.429-2.05 2.407-2.408 0.433-0.17 0.867-0.255 1.3-0.255 0.551 0 1.09 0.132 1.617 0.396 0.96 0.457 1.693 1.189 2.196 2.196l7.521 15.98c0.34 0.674 0.509 1.321 0.509 1.942 0 0.481-0.096 0.938-0.289 1.371-0.457 1.032-1.213 1.764-2.267 2.198-0.504 0.21-0.996 0.316-1.476 0.316-0.551 0-1.104-0.132-1.661-0.396-1.054-0.451-1.856-1.42-2.407-2.909h-7.31c-0.574 1.459-1.388 2.429-2.442 2.909-0.551 0.241-1.09 0.361-1.617 0.361-0.504 0-1.007-0.109-1.511-0.325-1.06-0.451-1.792-1.195-2.196-2.232-0.17-0.428-0.255-0.87-0.255-1.327 0-0.65 0.167-1.335 0.501-2.055l7.38-15.762zm3.742 9.941-1.221 2.804h2.478l-1.257-2.804zm0.686-1.907 2.196 4.999c0.094 0.263 0.261 0.419 0.501 0.466h0.141c0.169 0.023 0.316-0.024 0.439-0.141 0.07-0.07 0.105-0.166 0.105-0.289 0-0.093-0.023-0.202-0.07-0.324l-2.267-5.221c-0.099-0.211-0.258-0.328-0.474-0.352-0.211 0-0.378 0.082-0.501 0.246-0.094 0.123-0.141 0.244-0.141 0.361 0 0.07 0.024 0.155 0.071 0.255zm-4.209 7.875c-0.339 0-0.568 0.097-0.685 0.292-0.047 0.094-0.07 0.189-0.07 0.283-0.024 0.124 0 0.245 0.07 0.363 0.117 0.218 0.319 0.327 0.606 0.327h6.879c0.574 0 0.982 0.096 1.222 0.288 0.216 0.216 0.445 0.539 0.685 0.969 0.644 1.342 1.388 2.013 2.232 2.013 0.117 0 0.237-0.012 0.36-0.035 0.287-0.07 0.454-0.264 0.501-0.58v-0.14c0-0.217-0.097-0.372-0.29-0.465-0.141-0.076-0.273-0.114-0.396-0.114-0.14 0-0.26-0.012-0.36-0.036-0.217-0.023-0.528-0.406-0.936-1.15-0.407-0.743-0.707-1.211-0.9-1.405-0.451-0.407-1.157-0.61-2.117-0.61h-6.801zm0.536-14.283-6.941 14.891c-0.169 0.387-0.254 0.758-0.254 1.116 0 0.433 0.108 0.843 0.325 1.23 0.38 0.743 0.919 1.209 1.616 1.396 0.094 0.03 0.191 0.044 0.29 0.044 0.141 0 0.284-0.049 0.431-0.149 0.193-0.14 0.29-0.33 0.29-0.57 0-0.217-0.12-0.363-0.361-0.439-0.48-0.234-0.863-0.509-1.15-0.825-0.147-0.141-0.22-0.331-0.22-0.571 0-0.286 0.097-0.646 0.29-1.079l6.835-14.613c0.047-0.123 0.07-0.243 0.07-0.36 0.024-0.123 0-0.243-0.07-0.36-0.117-0.194-0.272-0.291-0.465-0.291h-0.071c-0.24 0.047-0.445 0.241-0.615 0.58zm1.546-2.232c-0.456 0-0.685 0.252-0.685 0.756 0 0.48 0.229 0.721 0.685 0.721 0.481 0 0.721-0.241 0.721-0.721 0-0.504-0.24-0.756-0.721-0.756z" fill="#2b2d42" fill-rule="nonzero"/>
                </g>
                <g transform="translate(0 6.217)">
                    <g transform="translate(-27.488)">
                        <circle cx="335.44" cy="116.34" r="18.115" fill="#2b2d42" stroke="#2b2d42" stroke-width="2px"/>
                        <g transform="matrix(1.1046 0 0 1.4571 -56.203 -136.2)">
                            <path d="m351.07 163.21c-5.576 0-10.103 4.527-10.103 10.102 0 5.576 4.527 10.103 10.103 10.103-1.673-2.358-3.031-6.073-3.031-10.103 0-4.029 1.358-7.744 3.031-10.102z" fill="#fff" stroke="#2b2d42" stroke-width="2px"/>
                        </g>
                    </g>
                    <g transform="translate(-27.488 65.536)">
                        <circle cx="335.44" cy="116.34" r="18.115" fill="#2b2d42" stroke="#2b2d42" stroke-width="2px"/>
                        <g transform="matrix(1.1046 0 0 1.4571 -56.203 -136.2)">
                            <path d="m351.07 163.21c-5.576 0-10.103 4.527-10.103 10.102 0 5.576 4.527 10.103 10.103 10.103-1.673-2.358-3.031-6.073-3.031-10.103 0-4.029 1.358-7.744 3.031-10.102z" fill="#fff" stroke="#2b2d42" stroke-width="2px"/>
                        </g>
                    </g>
                </g>
            </g>
        
    </g>
</svg>
