<?xml version="1.0" encoding="UTF-8"?>
<!DOCTYPE svg  PUBLIC '-//W3C//DTD SVG 1.1//EN'  'http://www.w3.org/Graphics/SVG/1.1/DTD/svg11.dtd'>
<svg clip-rule="evenodd" fill-rule="evenodd" stroke-linecap="round" stroke-linejoin="round" stroke-miterlimit="1.5" version="1.1" viewBox="0 0 205 205" xml:space="preserve" xmlns="http://www.w3.org/2000/svg">
    <g transform="translate(-409.14 -550.37)">
        <g transform="matrix(-1 1.2246e-16 1.2246e-16 1 1327.8 10.264)">
            
                <g transform="matrix(.792 9.6992e-17 9.6992e-17 -.792 154.5 925.06)">
                    <clipPath id="c">
                        <path d="m898.8 482.89-0.054-60.167-128.13-1.879 1.151-129.42 122.44-0.349 5.792 0.521 59.118-59.93-0.929-0.741h-248.42v247.74l4.253 4.215h184.78z"/>
                    </clipPath>
                    <g clip-path="url(#c)">
                        <path d="m961.73 238.49v236.84c0 4.171-3.387 7.558-7.559 7.558h-236.84c-4.171 0-7.558-3.387-7.558-7.558v-236.84c0-4.172 3.387-7.559 7.558-7.559h236.84c4.172 0 7.559 3.387 7.559 7.559zm-59.973 56.374c0-2.186-1.774-3.96-3.96-3.96h-124.1c-2.186 0-3.96 1.774-3.96 3.96v124.1c0 2.186 1.774 3.96 3.96 3.96h124.1c2.186 0 3.96-1.774 3.96-3.96v-124.1z" fill="#edf2f4" stroke="#2b2d42" stroke-width="6.31px"/>
                    </g>
                </g>
                <g transform="matrix(.792 9.6992e-17 9.6992e-17 -.792 154.5 925.06)">
                    <clipPath id="b">
                        <path d="m961.73 230.93-64.412 64.629s2.957 66.487 2.957 124.16v30.28c0 43.191-2.957 58.543-2.957 58.543l69.062 10.571 42.329-13.923s6.44-118.87 8.25-124.02c1.8-5.157 11.6-71.074 11.6-77.824 0-6.749-10.05-53.677-10.05-53.677l-56.779-18.733z"/>
                    </clipPath>
                    <g clip-path="url(#b)">
                        <clipPath id="a">
                            <path d="m901.77 482.89h59.958v-246.63l-0.906-1.986-59.082 59.842 0.106 184.13-0.076 4.637z"/>
                        </clipPath>
                        <g clip-path="url(#a)">
                            <path d="m961.73 238.49v236.84c0 4.171-3.387 7.558-7.559 7.558h-236.84c-4.171 0-7.558-3.387-7.558-7.558v-236.84c0-4.172 3.387-7.559 7.558-7.559h236.84c4.172 0 7.559 3.387 7.559 7.559zm-59.973 56.374c0-2.186-1.774-3.96-3.96-3.96h-124.1c-2.186 0-3.96 1.774-3.96 3.96v124.1c0 2.186 1.774 3.96 3.96 3.96h124.1c2.186 0 3.96-1.774 3.96-3.96v-124.1z" fill="#2b2d42"/>
                        </g>
                    </g>
                </g>
            
        </g>
    </g>
</svg>
