<?xml version="1.0" encoding="UTF-8"?>
<!DOCTYPE svg  PUBLIC '-//W3C//DTD SVG 1.1//EN'  'http://www.w3.org/Graphics/SVG/1.1/DTD/svg11.dtd'>
<svg clip-rule="evenodd" fill-rule="evenodd" stroke-linecap="round" stroke-linejoin="round" stroke-miterlimit="1.5" version="1.1" viewBox="0 0 150 150" xml:space="preserve" xmlns="http://www.w3.org/2000/svg">
    <g transform="translate(-887.61 -167.51)">
        
            <g transform="matrix(1.0862 0 0 1.0862 665.38 -14.436)">
                <rect x="204.59" y="167.51" width="138.1" height="138.1" fill="none"/>
            </g>
            <g transform="matrix(2.1144 0 0 2.1144 856.89 136.79)">
                <g transform="matrix(1.0174 0 0 1.0174 2.5403 -7.7321)">
                    <circle cx="46.649" cy="56.746" r="32.584" fill="#2b2d42" stroke="#fff" stroke-width=".59px"/>
                </g>
                <g transform="translate(-.44127 18.949)">
                    <path d="m38.055 25.024c1.32-0.4 2.46-0.97 3.42-1.71s1.7-1.55 2.22-2.43 0.82-1.79 0.9-2.73-0.1-1.82-0.54-2.64-1.15-1.53-2.13-2.13-2.27-1-3.87-1.2v12.84zm7.62 8.34c0.8 0.68 1.9 1.26 3.3 1.74s3.2 0.64 5.4 0.48l0.6 10.8c-2.08 0.12-3.98 0.05-5.7-0.21s-3.28-0.65-4.68-1.17-2.64-1.14-3.72-1.86-2.02-1.48-2.82-2.28v5.64h-10.92v-44.94c2.04-0.04 4.13-0.05 6.27-0.03s4.24 0.16 6.3 0.42 4.02 0.71 5.88 1.35 3.5 1.55 4.92 2.73 2.56 2.69 3.42 4.53 1.33 4.1 1.41 6.78c0.04 1.68-0.16 3.31-0.6 4.89s-1.08 3.06-1.92 4.44-1.87 2.64-3.09 3.78-2.57 2.11-4.05 2.91z" fill="#2b2d42" fill-rule="nonzero" stroke="#fff" stroke-linecap="butt" stroke-miterlimit="2" stroke-width="1px"/>
                </g>
                <g transform="translate(29.307 32.452)">
                    <path d="m50.775 14.944-12.66 0.18v6.9l8.88 0.06-0.06 11.22-8.82-0.12v14.4h-10.98v-43.74h11.73c3.78 0 7.67-0.04 11.67-0.12l0.24 11.22z" fill="#2b2d42" fill-rule="nonzero" stroke="#fff" stroke-linecap="butt" stroke-miterlimit="2" stroke-width="1px"/>
                </g>
            </g>
        
    </g>
</svg>
