<?xml version="1.0" encoding="UTF-8"?>
<!DOCTYPE svg  PUBLIC '-//W3C//DTD SVG 1.1//EN'  'http://www.w3.org/Graphics/SVG/1.1/DTD/svg11.dtd'>
<svg clip-rule="evenodd" fill-rule="evenodd" stroke-linecap="round" stroke-miterlimit="1" version="1.1" viewBox="0 0 152 152" xml:space="preserve" xmlns="http://www.w3.org/2000/svg">
    <g transform="translate(-928.47 -621.61)">
        <g transform="matrix(.9 0 0 .9 100.5 69.714)">
            <g transform="matrix(1.8126 0 0 1.8126 -534.44 -598.6)">
                <circle cx="848.7" cy="714.86" r="44.136" fill="none" stroke="#2b2d42" stroke-width="3.06px"/>
            </g>
            <g transform="matrix(1.2604 0 0 1.1828 -249.98 -125.03)">
                <circle cx="966.65" cy="669.44" r="16.418" fill="none" stroke="#2b2d42" stroke-width="1.36px"/>
            </g>
            <g transform="matrix(1.2604 0 0 1.1828 -189.35 -125.03)">
                <circle cx="966.65" cy="669.44" r="16.418" fill="none" stroke="#2b2d42" stroke-width="1.36px"/>
            </g>
            <g transform="matrix(1.6778 0 0 1.6778 -649.39 -453.46)">
                <circle cx="959.61" cy="667.24" r="5.496" fill="#2b2d42"/>
            </g>
            <g transform="matrix(1.6778 0 0 1.6778 -588.96 -452.71)">
                <circle cx="959.61" cy="667.24" r="5.496" fill="#2b2d42"/>
            </g>
            <g transform="translate(3.2745)">
                <path d="m1000.6 743.4s1.55 1.29 6.93 1.535c6.19 0.284 8.27-1.49 8.27-1.49" fill="none" stroke="#2b2d42" stroke-width="5.56px"/>
            </g>
            <g transform="translate(3.2745)">
                <path d="m995.76 688.52s-15.142 13.344-15.555 24.146c-0.323 8.449 16.029 8.221 16.029 8.221" fill="none" stroke="#2b2d42" stroke-width="5.56px"/>
            </g>
        </g>
    </g>
</svg>
