<?xml version="1.0" encoding="UTF-8"?>
<!DOCTYPE svg  PUBLIC '-//W3C//DTD SVG 1.1//EN'  'http://www.w3.org/Graphics/SVG/1.1/DTD/svg11.dtd'>
<svg clip-rule="evenodd" fill-rule="evenodd" stroke-linejoin="round" stroke-miterlimit="2" version="1.1" viewBox="0 0 170 170" xml:space="preserve" xmlns="http://www.w3.org/2000/svg">
    <g transform="translate(-881.41 -601.04)">
        <g transform="matrix(-.33033 0 0 .33033 965.88 708.78)">
            <g transform="translate(-350 -350)">
                <g fill="#2b2d42">
                    <path d="m519.64 188.01c0 15.234-12.348 27.582-27.578 27.582-15.234 0-27.582-12.348-27.582-27.582 0-15.23 12.348-27.578 27.582-27.578 15.23 0 27.578 12.348 27.578 27.578"/>
                    <path d="m350 28c139.08 0 252 112.92 252 252s-112.92 252-252 252-252-112.92-252-252 112.92-252 252-252zm-38.297 402.98c18.094 6.238 36.188 6.363 54.281-0.027 5.348-1.887 8.16-7.766 6.266-13.113-1.887-5.356-7.766-8.161-13.113-6.274-13.574 4.793-27.156 4.653-40.73-0.023-5.364-1.856-11.223 1.004-13.07 6.367-1.848 5.363 1.003 11.223 6.367 13.07h-1e-3zm57.086-168.8s25.207 23.262 37.648 46.574c2.727 5.106 4.84 10.188 5.656 14.973 0.567 3.305 0.555 6.418-0.914 9.055-1.574 2.824-4.648 4.859-9.152 6.508-6.524 2.386-15.473 3.605-27.363 3.605-5.672 0-10.281 4.609-10.281 10.281 0 5.68 4.609 10.281 10.281 10.281 25.195 0 40.137-5.523 48.277-12.914 11.508-10.449 12.438-25.418 6.242-41.508-11.145-28.93-46.426-61.941-46.426-61.941-4.16-3.859-10.672-3.613-14.531 0.555-3.852 4.16-3.605 10.668 0.555 14.527l8e-3 4e-3zm-81.059-132.33c34.66 0 62.797 26.266 62.797 58.613 0 32.352-28.141 58.613-62.797 58.613-34.66 0-62.797-26.266-62.797-58.613 0-32.352 28.141-58.613 62.797-58.613zm181.5 0c34.664 0 62.797 26.266 62.797 58.613 0 32.352-28.133 58.613-62.797 58.613-34.66 0-62.797-26.266-62.797-58.613 0-32.352 28.141-58.613 62.797-58.613z"/>
                    <path d="m338.14 188.01c0 15.234-12.348 27.582-27.578 27.582-15.234 0-27.582-12.348-27.582-27.582 0-15.23 12.348-27.578 27.582-27.578 15.23 0 27.578 12.348 27.578 27.578"/>
                    
                    
                    
                    
                    
                    
                    
                    
                    
                    
                    
                    
                    
                    
                    
                    
                    
                    
                    
                    
                    
                    
                    
                    
                    
                    
                    
                    
                    
                    
                    
                    
                    
                    
                    
                    
                    
                </g>
            </g>
        </g>
    </g>
</svg>
