<?xml version="1.0" encoding="UTF-8"?>
<!DOCTYPE svg  PUBLIC '-//W3C//DTD SVG 1.1//EN'  'http://www.w3.org/Graphics/SVG/1.1/DTD/svg11.dtd'>
<svg clip-rule="evenodd" fill-rule="evenodd" stroke-linejoin="round" stroke-miterlimit="2" version="1.1" viewBox="0 0 171 170" xml:space="preserve" xmlns="http://www.w3.org/2000/svg">
    <g transform="translate(-1053 -331.42)">
        <g transform="matrix(.28264 0 0 .28264 1138.2 430.34)">
            <g transform="translate(-350 -350)">
                <g fill="#2b2d42">
                    <path d="m350 0c154.64 0 280 125.36 280 280s-125.36 280-280 280-280-125.36-280-280 125.36-280 280-280zm0 20.496c-15.438 0-30.742 1.438-45.926 4.187-11.793 2.137-64.07 114.47-75.727 118.14-25.719 8.085-8.93-88.677-30.328-73.192-65.141 47.141-107.52 123.8-107.52 210.37 0 143.32 116.18 259.5 259.5 259.5s259.5-116.18 259.5-259.5c0-99.977-56.535-186.75-139.37-230.08-5.535-2.895-109.12 95.383-114.88 92.887-31.621-13.711 31.41-122.3-5.254-122.3l5e-3 -0.014z"/>
                    <path d="m250.24 394.06c0 20.141 10.852 38.523 28.391 51.949 18.164 13.906 43.395 22.512 71.371 22.512s53.207-8.605 71.371-22.512c17.539-13.43 28.391-31.809 28.391-51.949h16.32c0 25.484-13.312 48.422-34.828 64.895-20.891 15.992-49.629 25.891-81.254 25.891s-60.363-9.894-81.254-25.891c-21.516-16.473-34.828-39.41-34.828-64.895h16.32z" fill-rule="nonzero"/>
                    <path d="m472.41 226.52c18.59 0 33.66 15.07 33.66 33.66s-15.07 33.66-33.66 33.66-33.66-15.07-33.66-33.66 15.07-33.66 33.66-33.66zm-13.008 18.352c7.609 0 13.773 6.168 13.773 13.777s-6.168 13.773-13.773 13.773c-7.609 0-13.777-6.168-13.777-13.773 0-7.609 6.168-13.777 13.777-13.777z"/>
                    <path d="m227.59 226.52c18.59 0 33.66 15.07 33.66 33.66s-15.07 33.66-33.66 33.66-33.66-15.07-33.66-33.66 15.07-33.66 33.66-33.66zm-13.008 18.352c7.609 0 13.773 6.168 13.773 13.777s-6.168 13.773-13.773 13.773c-7.609 0-13.777-6.168-13.777-13.773 0-7.609 6.168-13.777 13.777-13.777z"/>
                </g>
            </g>
        </g>
    </g>
</svg>
