<?xml version="1.0" encoding="UTF-8" standalone="no"?>
<!DOCTYPE svg PUBLIC "-//W3C//DTD SVG 1.1//EN" "http://www.w3.org/Graphics/SVG/1.1/DTD/svg11.dtd">
<svg width="100%" height="100%" viewBox="0 0 200 200" version="1.1" xmlns="http://www.w3.org/2000/svg" xmlns:xlink="http://www.w3.org/1999/xlink" xml:space="preserve" xmlns:serif="http://www.serif.com/" style="fill-rule:evenodd;clip-rule:evenodd;stroke-linejoin:round;stroke-miterlimit:2;">
    <g transform="matrix(1,0,0,1,-716.631,-542.607)">
        <g>
            <g transform="matrix(0.791997,9.69917e-17,9.69917e-17,-0.791997,154.495,925.056)">
                <clipPath id="_clip1">
                    <path d="M898.801,482.892L898.747,422.725L770.614,420.846L771.765,291.431L894.206,291.082L899.998,291.603L959.116,231.673L958.187,230.932L709.771,230.932L709.771,478.677L714.024,482.892L898.801,482.892Z"/>
                </clipPath>
                <g clip-path="url(#_clip1)">
                    <path d="M961.731,238.491L961.731,475.334C961.731,479.505 958.344,482.892 954.172,482.892L717.329,482.892C713.158,482.892 709.771,479.505 709.771,475.334L709.771,238.491C709.771,234.319 713.158,230.932 717.329,230.932L954.172,230.932C958.344,230.932 961.731,234.319 961.731,238.491ZM901.758,294.865C901.758,292.679 899.984,290.905 897.798,290.905L773.703,290.905C771.517,290.905 769.743,292.679 769.743,294.865L769.743,418.96C769.743,421.146 771.517,422.92 773.703,422.92L897.798,422.92C899.984,422.92 901.758,421.146 901.758,418.96L901.758,294.865Z" style="fill:rgb(43,45,66);"/>
                </g>
            </g>
            <g transform="matrix(0.791997,9.69917e-17,9.69917e-17,-0.791997,154.495,925.056)">
                <clipPath id="_clip2">
                    <path d="M961.731,230.932L897.319,295.561C897.319,295.561 900.276,362.048 900.276,419.72L900.276,450C900.276,493.191 897.319,508.543 897.319,508.543L966.381,519.114L1008.71,505.191C1008.71,505.191 1015.15,386.323 1016.96,381.166C1018.76,376.009 1028.56,310.092 1028.56,303.342C1028.56,296.593 1018.51,249.665 1018.51,249.665L961.731,230.932Z"/>
                </clipPath>
                <g clip-path="url(#_clip2)">
                    <clipPath id="_clip3">
                        <path d="M901.773,482.892L961.731,482.892L961.731,236.266L960.825,234.28L901.743,294.122L901.849,478.255L901.773,482.892Z"/>
                    </clipPath>
                    <g clip-path="url(#_clip3)">
                        <path d="M961.731,238.491L961.731,475.334C961.731,479.505 958.344,482.892 954.172,482.892L717.329,482.892C713.158,482.892 709.771,479.505 709.771,475.334L709.771,238.491C709.771,234.319 713.158,230.932 717.329,230.932L954.172,230.932C958.344,230.932 961.731,234.319 961.731,238.491ZM901.758,294.865C901.758,292.679 899.984,290.905 897.798,290.905L773.703,290.905C771.517,290.905 769.743,292.679 769.743,294.865L769.743,418.96C769.743,421.146 771.517,422.92 773.703,422.92L897.798,422.92C899.984,422.92 901.758,421.146 901.758,418.96L901.758,294.865Z" style="fill:rgb(217,4,41);"/>
                    </g>
                </g>
            </g>
        </g>
    </g>
</svg>
